<svg id="Layer_1" data-name="Layer 1" xmlns="http://www.w3.org/2000/svg" xmlns:xlink="http://www.w3.org/1999/xlink" viewBox="0 0 388.46 104.38"><defs><linearGradient id="linear-gradient" x1="64.01" y1="87.69" x2="64.01" y2="38.75" gradientUnits="userSpaceOnUse"><stop offset="0.14" stop-color="#5cc19e"/><stop offset="0.88" stop-color="#b1ddcb"/></linearGradient><linearGradient id="linear-gradient-2" x1="76.38" y1="96.71" x2="76.38" y2="47.77" xlink:href="#linear-gradient"/><linearGradient id="linear-gradient-3" x1="53.64" y1="99.52" x2="53.64" y2="46.88" xlink:href="#linear-gradient"/><linearGradient id="linear-gradient-4" x1="52.31" y1="114.47" x2="52.31" y2="61.97" xlink:href="#linear-gradient"/><linearGradient id="linear-gradient-5" x1="84.66" y1="106.47" x2="84.66" y2="59.6" xlink:href="#linear-gradient"/></defs><path d="M64.76,38.75c.65.07.42,2.34,1.51,9,1,6.1,1.7,7.41,2.5,12.42a78.69,78.69,0,0,1,1,12.27A65.18,65.18,0,0,1,66.43,83c-.69,1.68-1.42,3.25-2.17,4.73q-1.64-3.89-3.34-7.84-1.34-3.06-2.68-6.06a100.59,100.59,0,0,1,.84-14.19C60.38,49.54,63.32,38.61,64.76,38.75Z" transform="translate(-25.97 -38.75)" style="fill:url(#linear-gradient)"/><path d="M65.43,89.91a78,78,0,0,0,6.35-15.67C73,70,73.34,67.19,75.46,62s4-7.92,6.35-10.21a25.67,25.67,0,0,1,5.52-4A41.59,41.59,0,0,0,85,53.09c-1.3,3.66-1.72,7.07-2.51,13.75-.56,4.84-.93,9.48-1.17,12.57-.07.93-.13,1.69-.16,2.22A52.25,52.25,0,0,1,76.3,89a55.57,55.57,0,0,1-7.36,7.69Z" transform="translate(-25.97 -38.75)" style="fill:url(#linear-gradient-2)"/><path d="M40.52,46.88a16.81,16.81,0,0,1,5.85,3.7,14.75,14.75,0,0,1,3.18,4.88,110.44,110.44,0,0,1,4.51,11.83c1.21,4.08,2.42,7.25,4.85,13.6a133.5,133.5,0,0,0,7.86,16.85l-2.34,1.78-5.52-5.18c-5.14-4.82-7.76-7.3-9.86-10.64-.7-1.1-1.19-2-1.51-2.66A71.83,71.83,0,0,1,46,70.39c-.31-4.63.09-5.63-.51-9.9a30.62,30.62,0,0,0-2.67-9.61A29.39,29.39,0,0,0,40.52,46.88Z" transform="translate(-25.97 -38.75)" style="fill:url(#linear-gradient-3)"/><path d="M26,62a65.83,65.83,0,0,1,6,4.58c7.85,6.71,9.32,11.17,17.22,20.7,5,6.08,7.79,9.38,12.71,12.86A54.66,54.66,0,0,0,78.64,108a14.62,14.62,0,0,1-5.52,4.88c-6.7,3.36-14.1.6-15.72,0-5.54-2.08-8.45-5.71-11.36-9.47-3.35-4.3-5.63-10.11-10.2-21.73a100.41,100.41,0,0,0-5.52-12.42C28.64,66.08,27.06,63.6,26,62Z" transform="translate(-25.97 -38.75)" style="fill:url(#linear-gradient-4)"/><path d="M102.55,59.6a56.19,56.19,0,0,0-7.36,6.21c-1.55,1.55-4.07,4.27-10,13.45-5.71,8.8-6.11,10.49-9.53,14a45,45,0,0,1-8.86,7.1,30.34,30.34,0,0,0,4.85,3.1,32.78,32.78,0,0,0,8.52,3c1.43-2.23,3.23-5.18,5.19-8.73a104,104,0,0,0,5.51-11.08c1.73-4.16,3-8,4-11.39a63.74,63.74,0,0,1,2.34-7.1A35.13,35.13,0,0,1,102.55,59.6Z" transform="translate(-25.97 -38.75)" style="fill:url(#linear-gradient-5)"/><path d="M148.58,70.36q-.09,21.23-.17,42.45L177,113" transform="translate(-25.97 -38.75)" style="fill:none;stroke:#0c1b14;stroke-miterlimit:10;stroke-width:0.9px"/><path d="M197.69,69.57c-9.41,2.62-13.24,11.3-13.82,12.69a23.67,23.67,0,0,0,4.06,24.39c1.08,1.24,7,8,16.27,7.81,10.22-.2,16.12-8.63,17.56-10.9,1.27-2,6-10.06,2.77-19.51-2.94-8.62-10.38-12.24-12.53-13.17A21.26,21.26,0,0,0,197.69,69.57Z" transform="translate(-25.97 -38.75)" style="fill:none;stroke:#0c1b14;stroke-miterlimit:10;stroke-width:0.9px"/><path d="M256.4,69.79l-26,.16q0,10.9.08,21.8l.08,21.46,27.49.33" transform="translate(-25.97 -38.75)" style="fill:none;stroke:#0c1b14;stroke-miterlimit:10;stroke-width:0.9px"/><path d="M254.45,91.91l-24-.16" transform="translate(-25.97 -38.75)" style="fill:none;stroke:#0c1b14;stroke-miterlimit:10;stroke-width:0.9px"/><path d="M263,69.71q10.36,22,20.74,43.91,10-21.7,20-43.42" transform="translate(-25.97 -38.75)" style="fill:none;stroke:#0c1b14;stroke-miterlimit:10;stroke-width:0.9px"/><path d="M335.2,69.79l-26,.16q0,10.9.08,21.8l.08,21.46,27.49.33" transform="translate(-25.97 -38.75)" style="fill:none;stroke:#0c1b14;stroke-miterlimit:10;stroke-width:0.9px"/><path d="M333.25,91.91l-24-.16" transform="translate(-25.97 -38.75)" style="fill:none;stroke:#0c1b14;stroke-miterlimit:10;stroke-width:0.9px"/><path d="M104.18,112.82c2.28-5.14,5.86-12.26,8.14-17.4Q117.84,83,123.37,70.51c6.4,13.55,14.12,28.7,20.52,42.25" transform="translate(-25.97 -38.75)" style="fill:none;stroke:#0c1b14;stroke-miterlimit:10;stroke-width:0.9px"/><path d="M112.43,95.18c4.75-.07,8.7.8,12.12,3.17,6.06,4.21,9,4.15,14,3.91" transform="translate(-25.97 -38.75)" style="fill:none;stroke:#0c1b14;stroke-miterlimit:10;stroke-width:0.9px"/><path d="M152.79,91.66" transform="translate(-25.97 -38.75)" style="fill:none;stroke:#0c1b14;stroke-miterlimit:10;stroke-width:0.9px"/><path d="M374.32,91.66" transform="translate(-25.97 -38.75)" style="fill:none;stroke:#0c1b14;stroke-miterlimit:10;stroke-width:0.9px"/><path d="M376.56,108c3.07-6.62,5.38-11.44,5.9-12.54,2-4.2,5.32-11.48,11.05-24.91,6.4,13.55,14.12,28.7,20.52,42.25" transform="translate(-25.97 -38.75)" style="fill:none;stroke:#0c1b14;stroke-miterlimit:10;stroke-width:0.9px"/><path d="M382.56,95.21c4.76-.07,8.71.8,12.13,3.17,6.06,4.21,9,4.14,14,3.91" transform="translate(-25.97 -38.75)" style="fill:none;stroke:#0c1b14;stroke-miterlimit:10;stroke-width:0.9px"/><path d="M342.27,113.15V69.89a114.54,114.54,0,0,1,11.47.25c5.14.56,7.08.94,9,2.46A10.69,10.69,0,0,1,366.43,78a11.43,11.43,0,0,1-1,8.11,12.16,12.16,0,0,1-4.88,5.4c-4.3,1.92-17.41,1-18.3,1.35" transform="translate(-25.97 -38.75)" style="fill:none;stroke:#0c1b14;stroke-miterlimit:10;stroke-width:0.9px"/><path d="M349.78,92.8c18.68.88,16.5,9.65,20.67,15.26,3.44,4.61,8.58,7,15.17,4.19" transform="translate(-25.97 -38.75)" style="fill:none;stroke:#0c1b14;stroke-miterlimit:10;stroke-width:0.9px"/><text transform="translate(143.86 100.2)" style="font-size:16px;fill:#0c1b14;font-family:Montserrat-Light, Montserrat;font-weight:300;letter-spacing:0.0269775390625em">B<tspan x="12.46" y="0" style="letter-spacing:0.042022705078125em">Y RUMEN NI</tspan><tspan x="118.38" y="0" style="letter-spacing:0.01708984375em">K</tspan><tspan x="129.9" y="0" style="letter-spacing:0.0419921875em">O</tspan><tspan x="143.98" y="0" style="letter-spacing:0.02801513671875em">L</tspan><tspan x="153.79" y="0" style="letter-spacing:0.02099609375em">O</tspan><tspan x="167.54" y="0" style="letter-spacing:0.0419921875em">V</tspan></text></svg>